<svg width="387" height="47" viewBox="0 0 387 47" fill="none" xmlns="http://www.w3.org/2000/svg">
<g id="Frame 27">
<g id="Group 21">
<rect id="buttom" y="1" width="387" height="45" rx="11" fill="#00DBFF" fill-opacity="0.82"/>
<path id="&#208;&#160;&#208;&#176;&#209;&#129;&#209;&#129;&#209;&#135;&#208;&#184;&#209;&#130;&#208;&#176;&#209;&#130;&#209;&#140;" d="M136.58 16C138.353 16 139.7 16.3933 140.62 17.18C141.54 17.9533 142 19.0067 142 20.34C142 21.6867 141.54 22.7533 140.62 23.54C139.7 24.3133 138.353 24.7 136.58 24.7H130.3V30H128.9V16H136.58ZM136.58 23.36C137.887 23.36 138.873 23.0867 139.54 22.54C140.207 21.9933 140.54 21.26 140.54 20.34C140.54 19.4333 140.207 18.7067 139.54 18.16C138.873 17.6133 137.887 17.34 136.58 17.34H130.3V23.36H136.58ZM147.573 30.2C146.173 30.2 145.106 29.9133 144.373 29.34C143.653 28.7533 143.293 27.9667 143.293 26.98C143.293 25.94 143.72 25.1133 144.573 24.5C145.44 23.8733 146.793 23.56 148.633 23.56C149.86 23.56 150.793 23.5 151.433 23.38C152.073 23.26 152.5 23.0933 152.713 22.88C152.926 22.6533 153.033 22.3533 153.033 21.98C153.033 21.42 152.72 20.96 152.093 20.6C151.466 20.2267 150.46 20.04 149.073 20.04C148.073 20.04 147.1 20.18 146.153 20.46C145.22 20.7267 144.48 21.0333 143.933 21.38V20C144.386 19.6933 145.086 19.42 146.033 19.18C146.98 18.9267 148.013 18.8 149.133 18.8C150.986 18.8 152.333 19.1 153.173 19.7C154.013 20.2867 154.433 21.0867 154.433 22.1V30H153.033V28.14C152.553 28.66 151.82 29.1333 150.833 29.56C149.86 29.9867 148.773 30.2 147.573 30.2ZM147.893 28.96C149.08 28.96 150.133 28.74 151.053 28.3C151.973 27.86 152.633 27.3667 153.033 26.82V23.82C152.913 24.0467 152.473 24.2533 151.713 24.44C150.953 24.6133 149.906 24.7 148.573 24.7C147.226 24.7 146.24 24.9067 145.613 25.32C145 25.7333 144.693 26.2667 144.693 26.92C144.693 27.5467 144.953 28.0467 145.473 28.42C146.006 28.78 146.813 28.96 147.893 28.96ZM163.406 30.2C162.166 30.2 161.059 29.9533 160.086 29.46C159.126 28.9667 158.372 28.2867 157.826 27.42C157.292 26.5533 157.026 25.58 157.026 24.5C157.026 23.42 157.292 22.4467 157.826 21.58C158.372 20.7133 159.139 20.0333 160.126 19.54C161.112 19.0467 162.259 18.8 163.566 18.8C164.512 18.8 165.379 18.9133 166.166 19.14C166.952 19.3667 167.626 19.64 168.186 19.96V21.36C167.626 21 166.952 20.6933 166.166 20.44C165.379 20.1733 164.512 20.04 163.566 20.04C162.512 20.04 161.599 20.2267 160.826 20.6C160.052 20.9733 159.459 21.5 159.046 22.18C158.632 22.8467 158.426 23.62 158.426 24.5C158.426 25.3667 158.632 26.14 159.046 26.82C159.459 27.4867 160.039 28.0133 160.786 28.4C161.546 28.7733 162.419 28.96 163.406 28.96C164.352 28.96 165.219 28.84 166.006 28.6C166.806 28.36 167.399 28.0933 167.786 27.8V29.14C167.386 29.42 166.786 29.6667 165.986 29.88C165.199 30.0933 164.339 30.2 163.406 30.2ZM176.668 30.2C175.428 30.2 174.321 29.9533 173.348 29.46C172.388 28.9667 171.634 28.2867 171.088 27.42C170.554 26.5533 170.288 25.58 170.288 24.5C170.288 23.42 170.554 22.4467 171.088 21.58C171.634 20.7133 172.401 20.0333 173.388 19.54C174.374 19.0467 175.521 18.8 176.828 18.8C177.774 18.8 178.641 18.9133 179.428 19.14C180.214 19.3667 180.888 19.64 181.448 19.96V21.36C180.888 21 180.214 20.6933 179.428 20.44C178.641 20.1733 177.774 20.04 176.828 20.04C175.774 20.04 174.861 20.2267 174.088 20.6C173.314 20.9733 172.721 21.5 172.308 22.18C171.894 22.8467 171.688 23.62 171.688 24.5C171.688 25.3667 171.894 26.14 172.308 26.82C172.721 27.4867 173.301 28.0133 174.048 28.4C174.808 28.7733 175.681 28.96 176.668 28.96C177.614 28.96 178.481 28.84 179.268 28.6C180.068 28.36 180.661 28.0933 181.048 27.8V29.14C180.648 29.42 180.048 29.6667 179.248 29.88C178.461 30.0933 177.601 30.2 176.668 30.2ZM192.629 19H194.029V30H192.629V25.76C191.349 26.1467 190.116 26.34 188.929 26.34C187.316 26.34 186.049 25.9533 185.129 25.18C184.209 24.3933 183.749 23.2733 183.749 21.82V19H185.149V21.88C185.149 22.88 185.496 23.66 186.189 24.22C186.883 24.78 187.816 25.06 188.989 25.06C190.243 25.06 191.456 24.8667 192.629 24.48V19ZM199.133 30H197.233V19H198.633V28.52H198.733L205.973 19H207.873V30H206.473V20.48H206.373L199.133 30ZM216.06 30H214.66V20.28H209.58V19H221.14V20.28H216.06V30ZM226.518 30.2C225.118 30.2 224.052 29.9133 223.318 29.34C222.598 28.7533 222.238 27.9667 222.238 26.98C222.238 25.94 222.665 25.1133 223.518 24.5C224.385 23.8733 225.738 23.56 227.578 23.56C228.805 23.56 229.738 23.5 230.378 23.38C231.018 23.26 231.445 23.0933 231.658 22.88C231.872 22.6533 231.978 22.3533 231.978 21.98C231.978 21.42 231.665 20.96 231.038 20.6C230.412 20.2267 229.405 20.04 228.018 20.04C227.018 20.04 226.045 20.18 225.098 20.46C224.165 20.7267 223.425 21.0333 222.878 21.38V20C223.332 19.6933 224.032 19.42 224.978 19.18C225.925 18.9267 226.958 18.8 228.078 18.8C229.932 18.8 231.278 19.1 232.118 19.7C232.958 20.2867 233.378 21.0867 233.378 22.1V30H231.978V28.14C231.498 28.66 230.765 29.1333 229.778 29.56C228.805 29.9867 227.718 30.2 226.518 30.2ZM226.838 28.96C228.025 28.96 229.078 28.74 229.998 28.3C230.918 27.86 231.578 27.3667 231.978 26.82V23.82C231.858 24.0467 231.418 24.2533 230.658 24.44C229.898 24.6133 228.852 24.7 227.518 24.7C226.172 24.7 225.185 24.9067 224.558 25.32C223.945 25.7333 223.638 26.2667 223.638 26.92C223.638 27.5467 223.898 28.0467 224.418 28.42C224.952 28.78 225.758 28.96 226.838 28.96ZM241.451 30H240.051V20.28H234.971V19H246.531V20.28H241.451V30ZM254.689 22.84C256.182 22.84 257.309 23.16 258.069 23.8C258.829 24.44 259.209 25.3133 259.209 26.42C259.209 27.5267 258.829 28.4 258.069 29.04C257.309 29.68 256.182 30 254.689 30H248.229V19H249.629V22.84H254.689ZM254.689 28.72C255.729 28.72 256.509 28.5133 257.029 28.1C257.549 27.6867 257.809 27.1267 257.809 26.42C257.809 25.7133 257.549 25.1533 257.029 24.74C256.509 24.3267 255.729 24.12 254.689 24.12H249.629V28.72H254.689Z" fill="white"/>
</g>
</g>
</svg>
