<svg width="330" height="45" viewBox="0 0 330 45" fill="none" xmlns="http://www.w3.org/2000/svg">
<g id="Group 26">
<rect id="buttom" width="330" height="45" rx="11" fill="#00DBFF"/>
<path id="&#208;&#191;&#208;&#190;&#208;&#180;&#208;&#191;&#208;&#184;&#209;&#129;&#208;&#176;&#209;&#130;&#209;&#140;&#209;&#129;&#209;&#143;" d="M78.6 31H76.92V17.8H89.76V31H88.08V19.336H78.6V31ZM100.928 31.24C99.3115 31.24 97.9035 30.944 96.7035 30.352C95.5195 29.76 94.6075 28.944 93.9675 27.904C93.3275 26.864 93.0075 25.696 93.0075 24.4C93.0075 23.104 93.3275 21.936 93.9675 20.896C94.6075 19.856 95.5195 19.04 96.7035 18.448C97.9035 17.856 99.3115 17.56 100.928 17.56C102.544 17.56 103.944 17.856 105.128 18.448C106.328 19.04 107.248 19.856 107.888 20.896C108.528 21.936 108.848 23.104 108.848 24.4C108.848 25.696 108.528 26.864 107.888 27.904C107.248 28.944 106.328 29.76 105.128 30.352C103.944 30.944 102.544 31.24 100.928 31.24ZM100.928 29.752C102.24 29.752 103.36 29.528 104.288 29.08C105.232 28.632 105.944 28.008 106.424 27.208C106.92 26.392 107.168 25.456 107.168 24.4C107.168 23.344 106.92 22.416 106.424 21.616C105.944 20.8 105.232 20.168 104.288 19.72C103.36 19.272 102.24 19.048 100.928 19.048C99.6155 19.048 98.4875 19.272 97.5435 19.72C96.6155 20.168 95.9035 20.8 95.4075 21.616C94.9275 22.416 94.6875 23.344 94.6875 24.4C94.6875 25.456 94.9275 26.392 95.4075 27.208C95.9035 28.008 96.6155 28.632 97.5435 29.08C98.4875 29.528 99.6155 29.752 100.928 29.752ZM110.036 34.84V29.464H111.692C112.124 28.904 112.532 27.888 112.916 26.416C113.3 24.928 113.492 23.144 113.492 21.064V17.8H123.836V29.464H125.9V34.84H124.22V31H111.716V34.84H110.036ZM113.468 29.464H122.156V19.336H115.172V21.064C115.172 22.968 114.988 24.664 114.62 26.152C114.268 27.64 113.884 28.728 113.468 29.416V29.464ZM129.975 31H128.295V17.8H141.135V31H139.455V19.336H129.975V31ZM147.263 31H144.983V17.8H146.663V29.224H146.783L155.471 17.8H157.751V31H156.071V19.576H155.951L147.263 31ZM168.656 31.24C167.168 31.24 165.84 30.944 164.672 30.352C163.52 29.76 162.616 28.944 161.96 27.904C161.32 26.864 161 25.696 161 24.4C161 23.104 161.32 21.936 161.96 20.896C162.616 19.856 163.536 19.04 164.72 18.448C165.904 17.856 167.28 17.56 168.848 17.56C169.984 17.56 171.024 17.696 171.968 17.968C172.912 18.24 173.72 18.568 174.392 18.952V20.632C173.72 20.2 172.912 19.832 171.968 19.528C171.024 19.208 169.984 19.048 168.848 19.048C167.584 19.048 166.488 19.272 165.56 19.72C164.632 20.168 163.92 20.8 163.424 21.616C162.928 22.416 162.68 23.344 162.68 24.4C162.68 25.44 162.928 26.368 163.424 27.184C163.92 27.984 164.616 28.616 165.512 29.08C166.424 29.528 167.472 29.752 168.656 29.752C169.792 29.752 170.832 29.608 171.776 29.32C172.736 29.032 173.448 28.712 173.912 28.36V29.968C173.432 30.304 172.712 30.6 171.752 30.856C170.808 31.112 169.776 31.24 168.656 31.24ZM181.93 31.24C180.25 31.24 178.97 30.896 178.09 30.208C177.226 29.504 176.794 28.56 176.794 27.376C176.794 26.128 177.306 25.136 178.33 24.4C179.37 23.648 180.994 23.272 183.202 23.272C184.674 23.272 185.794 23.2 186.562 23.056C187.33 22.912 187.842 22.712 188.098 22.456C188.354 22.184 188.482 21.824 188.482 21.376C188.482 20.704 188.106 20.152 187.354 19.72C186.602 19.272 185.394 19.048 183.73 19.048C182.53 19.048 181.362 19.216 180.226 19.552C179.106 19.872 178.218 20.24 177.562 20.656V19C178.106 18.632 178.946 18.304 180.082 18.016C181.218 17.712 182.458 17.56 183.802 17.56C186.026 17.56 187.642 17.92 188.65 18.64C189.658 19.344 190.162 20.304 190.162 21.52V31H188.482V28.768C187.906 29.392 187.026 29.96 185.842 30.472C184.674 30.984 183.37 31.24 181.93 31.24ZM182.314 29.752C183.738 29.752 185.002 29.488 186.106 28.96C187.21 28.432 188.002 27.84 188.482 27.184V23.584C188.338 23.856 187.81 24.104 186.898 24.328C185.986 24.536 184.73 24.64 183.13 24.64C181.514 24.64 180.33 24.888 179.578 25.384C178.842 25.88 178.474 26.52 178.474 27.304C178.474 28.056 178.786 28.656 179.41 29.104C180.05 29.536 181.018 29.752 182.314 29.752ZM199.849 31H198.169V19.336H192.073V17.8H205.945V19.336H199.849V31ZM215.735 22.408C217.527 22.408 218.879 22.792 219.791 23.56C220.703 24.328 221.159 25.376 221.159 26.704C221.159 28.032 220.703 29.08 219.791 29.848C218.879 30.616 217.527 31 215.735 31H207.983V17.8H209.663V22.408H215.735ZM215.735 29.464C216.983 29.464 217.919 29.216 218.543 28.72C219.167 28.224 219.479 27.552 219.479 26.704C219.479 25.856 219.167 25.184 218.543 24.688C217.919 24.192 216.983 23.944 215.735 23.944H209.663V29.464H215.735ZM231.21 31.24C229.722 31.24 228.394 30.944 227.226 30.352C226.074 29.76 225.17 28.944 224.514 27.904C223.874 26.864 223.554 25.696 223.554 24.4C223.554 23.104 223.874 21.936 224.514 20.896C225.17 19.856 226.09 19.04 227.274 18.448C228.458 17.856 229.834 17.56 231.402 17.56C232.538 17.56 233.578 17.696 234.522 17.968C235.466 18.24 236.274 18.568 236.946 18.952V20.632C236.274 20.2 235.466 19.832 234.522 19.528C233.578 19.208 232.538 19.048 231.402 19.048C230.138 19.048 229.042 19.272 228.114 19.72C227.186 20.168 226.474 20.8 225.978 21.616C225.482 22.416 225.234 23.344 225.234 24.4C225.234 25.44 225.482 26.368 225.978 27.184C226.474 27.984 227.17 28.616 228.066 29.08C228.978 29.528 230.026 29.752 231.21 29.752C232.346 29.752 233.386 29.608 234.33 29.32C235.29 29.032 236.002 28.712 236.466 28.36V29.968C235.986 30.304 235.266 30.6 234.306 30.856C233.362 31.112 232.33 31.24 231.21 31.24ZM239.588 31L244.268 26.248V26.2C243.644 26.2 242.956 26.08 242.204 25.84C241.452 25.584 240.788 25.152 240.212 24.544C239.636 23.92 239.348 23.088 239.348 22.048C239.348 20.736 239.796 19.704 240.692 18.952C241.604 18.184 242.964 17.8 244.772 17.8H251.852V31H250.172V26.248H246.356L241.676 31H239.588ZM250.172 24.712V19.336H244.772C243.508 19.336 242.564 19.584 241.94 20.08C241.332 20.56 241.028 21.216 241.028 22.048C241.028 22.864 241.34 23.512 241.964 23.992C242.588 24.472 243.524 24.712 244.772 24.712H250.172Z" fill="black"/>
</g>
</svg>
