<svg width="387" height="45" viewBox="0 0 387 45" fill="none" xmlns="http://www.w3.org/2000/svg">
<g id="Group 21">
<rect id="buttom" width="387" height="45" rx="11" fill="#00DBFF" fill-opacity="0.82"/>
<path id="&#208;&#161;&#208;&#190;&#208;&#183;&#208;&#180;&#208;&#176;&#209;&#130;&#209;&#140; &#208;&#183;&#208;&#176;&#208;&#186;&#208;&#176;&#208;&#183;" d="M120.82 29.2C119.1 29.2 117.6 28.8867 116.32 28.26C115.053 27.6333 114.08 26.7733 113.4 25.68C112.733 24.5867 112.4 23.36 112.4 22C112.4 20.6267 112.747 19.4 113.44 18.32C114.133 17.2267 115.14 16.3667 116.46 15.74C117.793 15.1133 119.38 14.8 121.22 14.8C122.38 14.8 123.467 14.9533 124.48 15.26C125.507 15.5667 126.293 15.9133 126.84 16.3V17.8C126.333 17.36 125.567 16.9667 124.54 16.62C123.527 16.26 122.42 16.08 121.22 16.08C119.687 16.08 118.367 16.34 117.26 16.86C116.153 17.38 115.307 18.0933 114.72 19C114.147 19.8933 113.86 20.8933 113.86 22C113.86 23.0933 114.14 24.0933 114.7 25C115.273 25.8933 116.087 26.6067 117.14 27.14C118.193 27.66 119.42 27.92 120.82 27.92C121.94 27.92 122.987 27.78 123.96 27.5C124.947 27.22 125.707 26.9133 126.24 26.58V28.02C125.72 28.3133 124.967 28.5867 123.98 28.84C122.993 29.08 121.94 29.2 120.82 29.2ZM135.341 29.2C133.994 29.2 132.821 28.9533 131.821 28.46C130.834 27.9667 130.074 27.2867 129.541 26.42C129.007 25.5533 128.741 24.58 128.741 23.5C128.741 22.42 129.007 21.4467 129.541 20.58C130.074 19.7133 130.834 19.0333 131.821 18.54C132.821 18.0467 133.994 17.8 135.341 17.8C136.687 17.8 137.854 18.0467 138.841 18.54C139.841 19.0333 140.607 19.7133 141.141 20.58C141.674 21.4467 141.941 22.42 141.941 23.5C141.941 24.58 141.674 25.5533 141.141 26.42C140.607 27.2867 139.841 27.9667 138.841 28.46C137.854 28.9533 136.687 29.2 135.341 29.2ZM135.341 27.96C136.434 27.96 137.367 27.7733 138.141 27.4C138.927 27.0267 139.521 26.5067 139.921 25.84C140.334 25.16 140.541 24.38 140.541 23.5C140.541 22.62 140.334 21.8467 139.921 21.18C139.521 20.5 138.927 19.9733 138.141 19.6C137.367 19.2267 136.434 19.04 135.341 19.04C134.247 19.04 133.307 19.2267 132.521 19.6C131.747 19.9733 131.154 20.5 130.741 21.18C130.341 21.8467 130.141 22.62 130.141 23.5C130.141 24.38 130.341 25.16 130.741 25.84C131.154 26.5067 131.747 27.0267 132.521 27.4C133.307 27.7733 134.247 27.96 135.341 27.96ZM148.951 29.2C148.058 29.2 147.198 29.1067 146.371 28.92C145.558 28.72 144.911 28.5 144.431 28.26V26.88C144.911 27.16 145.558 27.4133 146.371 27.64C147.185 27.8533 148.025 27.96 148.891 27.96C150.185 27.96 151.125 27.7867 151.711 27.44C152.298 27.08 152.591 26.62 152.591 26.06C152.591 25.4867 152.285 25.0267 151.671 24.68C151.058 24.3333 150.058 24.16 148.671 24.16H146.511V22.88H148.631C149.951 22.88 150.925 22.7 151.551 22.34C152.178 21.9667 152.491 21.5133 152.491 20.98C152.491 20.4333 152.185 19.9733 151.571 19.6C150.958 19.2267 150.018 19.04 148.751 19.04C147.858 19.04 146.991 19.1533 146.151 19.38C145.325 19.6067 144.651 19.8667 144.131 20.16V18.78C144.651 18.5267 145.325 18.3 146.151 18.1C146.991 17.9 147.858 17.8 148.751 17.8C149.925 17.8 150.891 17.94 151.651 18.22C152.425 18.5 152.991 18.8733 153.351 19.34C153.711 19.7933 153.891 20.3 153.891 20.86C153.891 21.2733 153.765 21.6733 153.511 22.06C153.258 22.4333 152.891 22.7467 152.411 23C151.945 23.2533 151.398 23.4067 150.771 23.46V23.56C151.825 23.6533 152.625 23.9333 153.171 24.4C153.718 24.8667 153.991 25.46 153.991 26.18C153.991 27.0467 153.571 27.7667 152.731 28.34C151.905 28.9133 150.645 29.2 148.951 29.2ZM154.982 32.2V27.72H156.362C156.722 27.2533 157.062 26.4067 157.382 25.18C157.702 23.94 157.862 22.4533 157.862 20.72V18H166.482V27.72H168.202V32.2H166.802V29H156.382V32.2H154.982ZM157.842 27.72H165.082V19.28H159.262V20.72C159.262 22.3067 159.109 23.72 158.802 24.96C158.509 26.2 158.189 27.1067 157.842 27.68V27.72ZM173.878 29.2C172.478 29.2 171.411 28.9133 170.678 28.34C169.958 27.7533 169.598 26.9667 169.598 25.98C169.598 24.94 170.024 24.1133 170.878 23.5C171.744 22.8733 173.098 22.56 174.938 22.56C176.164 22.56 177.098 22.5 177.738 22.38C178.378 22.26 178.804 22.0933 179.018 21.88C179.231 21.6533 179.338 21.3533 179.338 20.98C179.338 20.42 179.024 19.96 178.398 19.6C177.771 19.2267 176.764 19.04 175.378 19.04C174.378 19.04 173.404 19.18 172.458 19.46C171.524 19.7267 170.784 20.0333 170.238 20.38V19C170.691 18.6933 171.391 18.42 172.338 18.18C173.284 17.9267 174.318 17.8 175.438 17.8C177.291 17.8 178.638 18.1 179.478 18.7C180.318 19.2867 180.738 20.0867 180.738 21.1V29H179.338V27.14C178.858 27.66 178.124 28.1333 177.138 28.56C176.164 28.9867 175.078 29.2 173.878 29.2ZM174.198 27.96C175.384 27.96 176.438 27.74 177.358 27.3C178.278 26.86 178.938 26.3667 179.338 25.82V22.82C179.218 23.0467 178.778 23.2533 178.018 23.44C177.258 23.6133 176.211 23.7 174.878 23.7C173.531 23.7 172.544 23.9067 171.918 24.32C171.304 24.7333 170.998 25.2667 170.998 25.92C170.998 26.5467 171.258 27.0467 171.778 27.42C172.311 27.78 173.118 27.96 174.198 27.96ZM188.81 29H187.41V19.28H182.33V18H193.89V19.28H188.81V29ZM202.048 21.84C203.542 21.84 204.668 22.16 205.428 22.8C206.188 23.44 206.568 24.3133 206.568 25.42C206.568 26.5267 206.188 27.4 205.428 28.04C204.668 28.68 203.542 29 202.048 29H195.588V18H196.988V21.84H202.048ZM202.048 27.72C203.088 27.72 203.868 27.5133 204.388 27.1C204.908 26.6867 205.168 26.1267 205.168 25.42C205.168 24.7133 204.908 24.1533 204.388 23.74C203.868 23.3267 203.088 23.12 202.048 23.12H196.988V27.72H202.048ZM219.381 29.2C218.488 29.2 217.628 29.1067 216.801 28.92C215.988 28.72 215.341 28.5 214.861 28.26V26.88C215.341 27.16 215.988 27.4133 216.801 27.64C217.614 27.8533 218.454 27.96 219.321 27.96C220.614 27.96 221.554 27.7867 222.141 27.44C222.728 27.08 223.021 26.62 223.021 26.06C223.021 25.4867 222.714 25.0267 222.101 24.68C221.488 24.3333 220.488 24.16 219.101 24.16H216.941V22.88H219.061C220.381 22.88 221.354 22.7 221.981 22.34C222.608 21.9667 222.921 21.5133 222.921 20.98C222.921 20.4333 222.614 19.9733 222.001 19.6C221.388 19.2267 220.448 19.04 219.181 19.04C218.288 19.04 217.421 19.1533 216.581 19.38C215.754 19.6067 215.081 19.8667 214.561 20.16V18.78C215.081 18.5267 215.754 18.3 216.581 18.1C217.421 17.9 218.288 17.8 219.181 17.8C220.354 17.8 221.321 17.94 222.081 18.22C222.854 18.5 223.421 18.8733 223.781 19.34C224.141 19.7933 224.321 20.3 224.321 20.86C224.321 21.2733 224.194 21.6733 223.941 22.06C223.688 22.4333 223.321 22.7467 222.841 23C222.374 23.2533 221.828 23.4067 221.201 23.46V23.56C222.254 23.6533 223.054 23.9333 223.601 24.4C224.148 24.8667 224.421 25.46 224.421 26.18C224.421 27.0467 224.001 27.7667 223.161 28.34C222.334 28.9133 221.074 29.2 219.381 29.2ZM230.792 29.2C229.392 29.2 228.325 28.9133 227.592 28.34C226.872 27.7533 226.512 26.9667 226.512 25.98C226.512 24.94 226.938 24.1133 227.792 23.5C228.658 22.8733 230.012 22.56 231.852 22.56C233.078 22.56 234.012 22.5 234.652 22.38C235.292 22.26 235.718 22.0933 235.932 21.88C236.145 21.6533 236.252 21.3533 236.252 20.98C236.252 20.42 235.938 19.96 235.312 19.6C234.685 19.2267 233.678 19.04 232.292 19.04C231.292 19.04 230.318 19.18 229.372 19.46C228.438 19.7267 227.698 20.0333 227.152 20.38V19C227.605 18.6933 228.305 18.42 229.252 18.18C230.198 17.9267 231.232 17.8 232.352 17.8C234.205 17.8 235.552 18.1 236.392 18.7C237.232 19.2867 237.652 20.0867 237.652 21.1V29H236.252V27.14C235.772 27.66 235.038 28.1333 234.052 28.56C233.078 28.9867 231.992 29.2 230.792 29.2ZM231.112 27.96C232.298 27.96 233.352 27.74 234.272 27.3C235.192 26.86 235.852 26.3667 236.252 25.82V22.82C236.132 23.0467 235.692 23.2533 234.932 23.44C234.172 23.6133 233.125 23.7 231.792 23.7C230.445 23.7 229.458 23.9067 228.832 24.32C228.218 24.7333 227.912 25.2667 227.912 25.92C227.912 26.5467 228.172 27.0467 228.692 27.42C229.225 27.78 230.032 27.96 231.112 27.96ZM242.145 29H240.745V18H242.145V23L249.045 18H251.105L243.625 23.4L251.105 29H249.045L242.145 23.8V29ZM256.28 29.2C254.88 29.2 253.813 28.9133 253.08 28.34C252.36 27.7533 252 26.9667 252 25.98C252 24.94 252.427 24.1133 253.28 23.5C254.147 22.8733 255.5 22.56 257.34 22.56C258.567 22.56 259.5 22.5 260.14 22.38C260.78 22.26 261.207 22.0933 261.42 21.88C261.633 21.6533 261.74 21.3533 261.74 20.98C261.74 20.42 261.427 19.96 260.8 19.6C260.173 19.2267 259.167 19.04 257.78 19.04C256.78 19.04 255.807 19.18 254.86 19.46C253.927 19.7267 253.187 20.0333 252.64 20.38V19C253.093 18.6933 253.793 18.42 254.74 18.18C255.687 17.9267 256.72 17.8 257.84 17.8C259.693 17.8 261.04 18.1 261.88 18.7C262.72 19.2867 263.14 20.0867 263.14 21.1V29H261.74V27.14C261.26 27.66 260.527 28.1333 259.54 28.56C258.567 28.9867 257.48 29.2 256.28 29.2ZM256.6 27.96C257.787 27.96 258.84 27.74 259.76 27.3C260.68 26.86 261.34 26.3667 261.74 25.82V22.82C261.62 23.0467 261.18 23.2533 260.42 23.44C259.66 23.6133 258.613 23.7 257.28 23.7C255.933 23.7 254.947 23.9067 254.32 24.32C253.707 24.7333 253.4 25.2667 253.4 25.92C253.4 26.5467 253.66 27.0467 254.18 27.42C254.713 27.78 255.52 27.96 256.6 27.96ZM270.553 29.2C269.659 29.2 268.799 29.1067 267.973 28.92C267.159 28.72 266.513 28.5 266.033 28.26V26.88C266.513 27.16 267.159 27.4133 267.973 27.64C268.786 27.8533 269.626 27.96 270.493 27.96C271.786 27.96 272.726 27.7867 273.313 27.44C273.899 27.08 274.193 26.62 274.193 26.06C274.193 25.4867 273.886 25.0267 273.273 24.68C272.659 24.3333 271.659 24.16 270.273 24.16H268.113V22.88H270.233C271.553 22.88 272.526 22.7 273.153 22.34C273.779 21.9667 274.093 21.5133 274.093 20.98C274.093 20.4333 273.786 19.9733 273.173 19.6C272.559 19.2267 271.619 19.04 270.353 19.04C269.459 19.04 268.593 19.1533 267.753 19.38C266.926 19.6067 266.253 19.8667 265.733 20.16V18.78C266.253 18.5267 266.926 18.3 267.753 18.1C268.593 17.9 269.459 17.8 270.353 17.8C271.526 17.8 272.493 17.94 273.253 18.22C274.026 18.5 274.593 18.8733 274.953 19.34C275.313 19.7933 275.493 20.3 275.493 20.86C275.493 21.2733 275.366 21.6733 275.113 22.06C274.859 22.4333 274.493 22.7467 274.013 23C273.546 23.2533 272.999 23.4067 272.373 23.46V23.56C273.426 23.6533 274.226 23.9333 274.773 24.4C275.319 24.8667 275.593 25.46 275.593 26.18C275.593 27.0467 275.173 27.7667 274.333 28.34C273.506 28.9133 272.246 29.2 270.553 29.2Z" fill="white"/>
</g>
</svg>
