<svg width="387" height="45" viewBox="0 0 387 45" fill="none" xmlns="http://www.w3.org/2000/svg">
<g id="Group 22">
<rect id="buttom" width="387" height="45" rx="11" fill="#00DBFF" fill-opacity="0.82"/>
<path id="&#208;&#163;&#208;&#180;&#208;&#176;&#208;&#187;&#208;&#184;&#209;&#130;&#209;&#140; &#209;&#130;&#208;&#190;&#208;&#178;&#208;&#176;&#209;&#128;" d="M123.34 15H124.84L118.42 26.26C117.82 27.2867 117.187 28.0333 116.52 28.5C115.867 28.9667 115.02 29.2 113.98 29.2C113.727 29.2 113.493 29.1933 113.28 29.18C113.067 29.1667 112.827 29.14 112.56 29.1V27.8C113.04 27.8667 113.487 27.9 113.9 27.9C114.54 27.9 115.12 27.76 115.64 27.48C116.16 27.1867 116.573 26.78 116.88 26.26L117.06 25.96L110.1 15H111.7L117.74 24.58H117.84L123.34 15ZM123.357 32.2V27.72H124.737C125.097 27.2533 125.437 26.4067 125.757 25.18C126.077 23.94 126.237 22.4533 126.237 20.72V18H134.857V27.72H136.577V32.2H135.177V29H124.757V32.2H123.357ZM126.217 27.72H133.457V19.28H127.637V20.72C127.637 22.3067 127.484 23.72 127.177 24.96C126.884 26.2 126.564 27.1067 126.217 27.68V27.72ZM142.253 29.2C140.853 29.2 139.786 28.9133 139.053 28.34C138.333 27.7533 137.973 26.9667 137.973 25.98C137.973 24.94 138.399 24.1133 139.253 23.5C140.119 22.8733 141.473 22.56 143.313 22.56C144.539 22.56 145.473 22.5 146.113 22.38C146.753 22.26 147.179 22.0933 147.393 21.88C147.606 21.6533 147.713 21.3533 147.713 20.98C147.713 20.42 147.399 19.96 146.773 19.6C146.146 19.2267 145.139 19.04 143.753 19.04C142.753 19.04 141.779 19.18 140.833 19.46C139.899 19.7267 139.159 20.0333 138.613 20.38V19C139.066 18.6933 139.766 18.42 140.713 18.18C141.659 17.9267 142.693 17.8 143.813 17.8C145.666 17.8 147.013 18.1 147.853 18.7C148.693 19.2867 149.113 20.0867 149.113 21.1V29H147.713V27.14C147.233 27.66 146.499 28.1333 145.513 28.56C144.539 28.9867 143.453 29.2 142.253 29.2ZM142.573 27.96C143.759 27.96 144.813 27.74 145.733 27.3C146.653 26.86 147.313 26.3667 147.713 25.82V22.82C147.593 23.0467 147.153 23.2533 146.393 23.44C145.633 23.6133 144.586 23.7 143.253 23.7C141.906 23.7 140.919 23.9067 140.293 24.32C139.679 24.7333 139.373 25.2667 139.373 25.92C139.373 26.5467 139.633 27.0467 140.153 27.42C140.686 27.78 141.493 27.96 142.573 27.96ZM150.805 28.86C151.232 28.38 151.632 27.4733 152.005 26.14C152.379 24.7933 152.599 23.18 152.665 21.3L152.785 18H161.585V29H160.185V19.28H154.145L154.065 21.42C153.999 23.3133 153.779 24.9333 153.405 26.28C153.032 27.6133 152.645 28.52 152.245 29H150.805V28.86ZM166.684 29H164.784V18H166.184V27.52H166.284L173.524 18H175.424V29H174.024V19.48H173.924L166.684 29ZM183.611 29H182.211V19.28H177.131V18H188.691V19.28H183.611V29ZM196.849 21.84C198.342 21.84 199.469 22.16 200.229 22.8C200.989 23.44 201.369 24.3133 201.369 25.42C201.369 26.5267 200.989 27.4 200.229 28.04C199.469 28.68 198.342 29 196.849 29H190.389V18H191.789V21.84H196.849ZM196.849 27.72C197.889 27.72 198.669 27.5133 199.189 27.1C199.709 26.6867 199.969 26.1267 199.969 25.42C199.969 24.7133 199.709 24.1533 199.189 23.74C198.669 23.3267 197.889 23.12 196.849 23.12H191.789V27.72H196.849ZM214.842 29H213.442V19.28H208.362V18H219.922V19.28H214.842V29ZM227.329 29.2C225.982 29.2 224.809 28.9533 223.809 28.46C222.822 27.9667 222.062 27.2867 221.529 26.42C220.996 25.5533 220.729 24.58 220.729 23.5C220.729 22.42 220.996 21.4467 221.529 20.58C222.062 19.7133 222.822 19.0333 223.809 18.54C224.809 18.0467 225.982 17.8 227.329 17.8C228.676 17.8 229.842 18.0467 230.829 18.54C231.829 19.0333 232.596 19.7133 233.129 20.58C233.662 21.4467 233.929 22.42 233.929 23.5C233.929 24.58 233.662 25.5533 233.129 26.42C232.596 27.2867 231.829 27.9667 230.829 28.46C229.842 28.9533 228.676 29.2 227.329 29.2ZM227.329 27.96C228.422 27.96 229.356 27.7733 230.129 27.4C230.916 27.0267 231.509 26.5067 231.909 25.84C232.322 25.16 232.529 24.38 232.529 23.5C232.529 22.62 232.322 21.8467 231.909 21.18C231.509 20.5 230.916 19.9733 230.129 19.6C229.356 19.2267 228.422 19.04 227.329 19.04C226.236 19.04 225.296 19.2267 224.509 19.6C223.736 19.9733 223.142 20.5 222.729 21.18C222.329 21.8467 222.129 22.62 222.129 23.5C222.129 24.38 222.329 25.16 222.729 25.84C223.142 26.5067 223.736 27.0267 224.509 27.4C225.296 27.7733 226.236 27.96 227.329 27.96ZM244.36 23.78C245.293 23.8467 245.993 24.1067 246.46 24.56C246.94 25 247.18 25.5533 247.18 26.22C247.18 27.0333 246.84 27.7 246.16 28.22C245.48 28.74 244.48 29 243.16 29H236.62V18H242.78C244.22 18 245.313 18.28 246.06 18.84C246.806 19.4 247.18 20.1133 247.18 20.98C247.18 21.6867 246.92 22.3 246.4 22.82C245.893 23.34 245.213 23.6267 244.36 23.68V23.78ZM238.02 19.28V23.1H242.72C243.773 23.1 244.546 22.9267 245.04 22.58C245.533 22.2333 245.78 21.7667 245.78 21.18C245.78 20.6067 245.533 20.1467 245.04 19.8C244.546 19.4533 243.773 19.28 242.72 19.28H238.02ZM243.08 27.72C244 27.72 244.68 27.5667 245.12 27.26C245.56 26.9533 245.78 26.5533 245.78 26.06C245.78 25.5533 245.56 25.1467 245.12 24.84C244.693 24.5333 244.013 24.38 243.08 24.38H238.02V27.72H243.08ZM253.757 29.2C252.357 29.2 251.29 28.9133 250.557 28.34C249.837 27.7533 249.477 26.9667 249.477 25.98C249.477 24.94 249.903 24.1133 250.757 23.5C251.623 22.8733 252.977 22.56 254.817 22.56C256.043 22.56 256.977 22.5 257.617 22.38C258.257 22.26 258.683 22.0933 258.897 21.88C259.11 21.6533 259.217 21.3533 259.217 20.98C259.217 20.42 258.903 19.96 258.277 19.6C257.65 19.2267 256.643 19.04 255.257 19.04C254.257 19.04 253.283 19.18 252.337 19.46C251.403 19.7267 250.663 20.0333 250.117 20.38V19C250.57 18.6933 251.27 18.42 252.217 18.18C253.163 17.9267 254.197 17.8 255.317 17.8C257.17 17.8 258.517 18.1 259.357 18.7C260.197 19.2867 260.617 20.0867 260.617 21.1V29H259.217V27.14C258.737 27.66 258.003 28.1333 257.017 28.56C256.043 28.9867 254.957 29.2 253.757 29.2ZM254.077 27.96C255.263 27.96 256.317 27.74 257.237 27.3C258.157 26.86 258.817 26.3667 259.217 25.82V22.82C259.097 23.0467 258.657 23.2533 257.897 23.44C257.137 23.6133 256.09 23.7 254.757 23.7C253.41 23.7 252.423 23.9067 251.797 24.32C251.183 24.7333 250.877 25.2667 250.877 25.92C250.877 26.5467 251.137 27.0467 251.657 27.42C252.19 27.78 252.997 27.96 254.077 27.96ZM263.709 32.8V18H265.109V19.7H265.209C265.623 19.22 266.243 18.7867 267.069 18.4C267.896 18 268.809 17.8 269.809 17.8C271.009 17.8 272.069 18.0467 272.989 18.54C273.923 19.0333 274.643 19.7133 275.149 20.58C275.656 21.4333 275.909 22.4067 275.909 23.5C275.909 24.5933 275.656 25.5733 275.149 26.44C274.643 27.2933 273.923 27.9667 272.989 28.46C272.069 28.9533 271.009 29.2 269.809 29.2C268.809 29.2 267.896 29.0067 267.069 28.62C266.243 28.22 265.623 27.78 265.209 27.3H265.109V32.8H263.709ZM269.549 27.96C270.563 27.96 271.443 27.7733 272.189 27.4C272.936 27.0133 273.509 26.4867 273.909 25.82C274.309 25.14 274.509 24.3667 274.509 23.5C274.509 22.6333 274.309 21.8667 273.909 21.2C273.509 20.52 272.936 19.9933 272.189 19.62C271.443 19.2333 270.563 19.04 269.549 19.04C268.563 19.04 267.669 19.2733 266.869 19.74C266.069 20.1933 265.483 20.7067 265.109 21.28V25.72C265.483 26.2933 266.069 26.8133 266.869 27.28C267.669 27.7333 268.563 27.96 269.549 27.96Z" fill="white"/>
</g>
</svg>
