<svg width="330" height="45" viewBox="0 0 330 45" fill="none" xmlns="http://www.w3.org/2000/svg">
<g id="Group 39">
<rect id="buttom" width="330" height="45" rx="11" fill="#00DBFF"/>
<path id="&#208;&#191;&#208;&#190;&#208;&#180;&#208;&#191;&#208;&#184;&#209;&#129;&#208;&#176;&#209;&#130;&#209;&#140;&#209;&#129;&#209;&#143;" d="M82.6 31H80.92V17.8H93.76V31H92.08V19.336H82.6V31ZM104.928 31.24C103.312 31.24 101.904 30.944 100.704 30.352C99.5195 29.76 98.6075 28.944 97.9675 27.904C97.3275 26.864 97.0075 25.696 97.0075 24.4C97.0075 23.104 97.3275 21.936 97.9675 20.896C98.6075 19.856 99.5195 19.04 100.704 18.448C101.904 17.856 103.312 17.56 104.928 17.56C106.544 17.56 107.944 17.856 109.128 18.448C110.328 19.04 111.248 19.856 111.888 20.896C112.528 21.936 112.848 23.104 112.848 24.4C112.848 25.696 112.528 26.864 111.888 27.904C111.248 28.944 110.328 29.76 109.128 30.352C107.944 30.944 106.544 31.24 104.928 31.24ZM104.928 29.752C106.24 29.752 107.36 29.528 108.288 29.08C109.232 28.632 109.944 28.008 110.424 27.208C110.92 26.392 111.168 25.456 111.168 24.4C111.168 23.344 110.92 22.416 110.424 21.616C109.944 20.8 109.232 20.168 108.288 19.72C107.36 19.272 106.24 19.048 104.928 19.048C103.616 19.048 102.488 19.272 101.544 19.72C100.616 20.168 99.9035 20.8 99.4075 21.616C98.9275 22.416 98.6875 23.344 98.6875 24.4C98.6875 25.456 98.9275 26.392 99.4075 27.208C99.9035 28.008 100.616 28.632 101.544 29.08C102.488 29.528 103.616 29.752 104.928 29.752ZM114.036 34.84V29.464H115.692C116.124 28.904 116.532 27.888 116.916 26.416C117.3 24.928 117.492 23.144 117.492 21.064V17.8H127.836V29.464H129.9V34.84H128.22V31H115.716V34.84H114.036ZM117.468 29.464H126.156V19.336H119.172V21.064C119.172 22.968 118.988 24.664 118.62 26.152C118.268 27.64 117.884 28.728 117.468 29.416V29.464ZM133.975 31H132.295V17.8H145.135V31H143.455V19.336H133.975V31ZM151.263 31H148.983V17.8H150.663V29.224H150.783L159.471 17.8H161.751V31H160.071V19.576H159.951L151.263 31ZM172.656 31.24C171.168 31.24 169.84 30.944 168.672 30.352C167.52 29.76 166.616 28.944 165.96 27.904C165.32 26.864 165 25.696 165 24.4C165 23.104 165.32 21.936 165.96 20.896C166.616 19.856 167.536 19.04 168.72 18.448C169.904 17.856 171.28 17.56 172.848 17.56C173.984 17.56 175.024 17.696 175.968 17.968C176.912 18.24 177.72 18.568 178.392 18.952V20.632C177.72 20.2 176.912 19.832 175.968 19.528C175.024 19.208 173.984 19.048 172.848 19.048C171.584 19.048 170.488 19.272 169.56 19.72C168.632 20.168 167.92 20.8 167.424 21.616C166.928 22.416 166.68 23.344 166.68 24.4C166.68 25.44 166.928 26.368 167.424 27.184C167.92 27.984 168.616 28.616 169.512 29.08C170.424 29.528 171.472 29.752 172.656 29.752C173.792 29.752 174.832 29.608 175.776 29.32C176.736 29.032 177.448 28.712 177.912 28.36V29.968C177.432 30.304 176.712 30.6 175.752 30.856C174.808 31.112 173.776 31.24 172.656 31.24ZM185.93 31.24C184.25 31.24 182.97 30.896 182.09 30.208C181.226 29.504 180.794 28.56 180.794 27.376C180.794 26.128 181.306 25.136 182.33 24.4C183.37 23.648 184.994 23.272 187.202 23.272C188.674 23.272 189.794 23.2 190.562 23.056C191.33 22.912 191.842 22.712 192.098 22.456C192.354 22.184 192.482 21.824 192.482 21.376C192.482 20.704 192.106 20.152 191.354 19.72C190.602 19.272 189.394 19.048 187.73 19.048C186.53 19.048 185.362 19.216 184.226 19.552C183.106 19.872 182.218 20.24 181.562 20.656V19C182.106 18.632 182.946 18.304 184.082 18.016C185.218 17.712 186.458 17.56 187.802 17.56C190.026 17.56 191.642 17.92 192.65 18.64C193.658 19.344 194.162 20.304 194.162 21.52V31H192.482V28.768C191.906 29.392 191.026 29.96 189.842 30.472C188.674 30.984 187.37 31.24 185.93 31.24ZM186.314 29.752C187.738 29.752 189.002 29.488 190.106 28.96C191.21 28.432 192.002 27.84 192.482 27.184V23.584C192.338 23.856 191.81 24.104 190.898 24.328C189.986 24.536 188.73 24.64 187.13 24.64C185.514 24.64 184.33 24.888 183.578 25.384C182.842 25.88 182.474 26.52 182.474 27.304C182.474 28.056 182.786 28.656 183.41 29.104C184.05 29.536 185.018 29.752 186.314 29.752ZM203.849 31H202.169V19.336H196.073V17.8H209.945V19.336H203.849V31ZM219.735 22.408C221.527 22.408 222.879 22.792 223.791 23.56C224.703 24.328 225.159 25.376 225.159 26.704C225.159 28.032 224.703 29.08 223.791 29.848C222.879 30.616 221.527 31 219.735 31H211.983V17.8H213.663V22.408H219.735ZM219.735 29.464C220.983 29.464 221.919 29.216 222.543 28.72C223.167 28.224 223.479 27.552 223.479 26.704C223.479 25.856 223.167 25.184 222.543 24.688C221.919 24.192 220.983 23.944 219.735 23.944H213.663V29.464H219.735ZM235.21 31.24C233.722 31.24 232.394 30.944 231.226 30.352C230.074 29.76 229.17 28.944 228.514 27.904C227.874 26.864 227.554 25.696 227.554 24.4C227.554 23.104 227.874 21.936 228.514 20.896C229.17 19.856 230.09 19.04 231.274 18.448C232.458 17.856 233.834 17.56 235.402 17.56C236.538 17.56 237.578 17.696 238.522 17.968C239.466 18.24 240.274 18.568 240.946 18.952V20.632C240.274 20.2 239.466 19.832 238.522 19.528C237.578 19.208 236.538 19.048 235.402 19.048C234.138 19.048 233.042 19.272 232.114 19.72C231.186 20.168 230.474 20.8 229.978 21.616C229.482 22.416 229.234 23.344 229.234 24.4C229.234 25.44 229.482 26.368 229.978 27.184C230.474 27.984 231.17 28.616 232.066 29.08C232.978 29.528 234.026 29.752 235.21 29.752C236.346 29.752 237.386 29.608 238.33 29.32C239.29 29.032 240.002 28.712 240.466 28.36V29.968C239.986 30.304 239.266 30.6 238.306 30.856C237.362 31.112 236.33 31.24 235.21 31.24ZM243.588 31L248.268 26.248V26.2C247.644 26.2 246.956 26.08 246.204 25.84C245.452 25.584 244.788 25.152 244.212 24.544C243.636 23.92 243.348 23.088 243.348 22.048C243.348 20.736 243.796 19.704 244.692 18.952C245.604 18.184 246.964 17.8 248.772 17.8H255.852V31H254.172V26.248H250.356L245.676 31H243.588ZM254.172 24.712V19.336H248.772C247.508 19.336 246.564 19.584 245.94 20.08C245.332 20.56 245.028 21.216 245.028 22.048C245.028 22.864 245.34 23.512 245.964 23.992C246.588 24.472 247.524 24.712 248.772 24.712H254.172Z" fill="black"/>
</g>
</svg>
